<?xml version="1.0" standalone="no"?>
<!DOCTYPE svg PUBLIC "-//W3C//DTD SVG 20010904//EN"
 "http://www.w3.org/TR/2001/REC-SVG-20010904/DTD/svg10.dtd">
<svg version="1.0" xmlns="http://www.w3.org/2000/svg"
 width="1024.000000pt" height="1024.000000pt" viewBox="0 0 1024.000000 1024.000000"
 preserveAspectRatio="xMidYMid meet">

<g transform="translate(0.000000,1024.000000) scale(0.100000,-0.100000)"
fill="#000000" stroke="none">
<path d="M5960 9000 c0 -3 17 -15 38 -27 128 -73 364 -283 482 -429 208 -259
370 -605 459 -984 134 -567 93 -1187 -117 -1782 -226 -637 -648 -1188 -1238
-1620 -269 -196 -578 -369 -789 -441 -148 -51 -248 -78 -237 -64 93 118 127
181 170 317 45 142 57 227 56 400 0 171 -15 264 -66 410 -165 471 -598 826
-1103 905 -219 35 -526 3 -751 -76 -93 -33 -204 -85 -204 -95 0 -4 19 -4 43
-1 115 16 411 -34 582 -98 221 -82 399 -193 568 -354 220 -211 371 -472 447
-775 42 -168 54 -284 47 -487 l-5 -177 36 -6 c161 -25 436 -38 697 -33 363 8
613 39 930 118 639 159 1153 432 1564 833 391 382 626 837 707 1366 21 139 24
459 6 600 -98 745 -503 1465 -1077 1913 -194 151 -449 301 -670 393 -104 43
-575 203 -575 194z"/>
<path d="M8514 6833 c33 -113 44 -673 18 -883 -76 -605 -310 -1102 -722 -1533
-597 -625 -1420 -1000 -2365 -1078 -202 -17 -637 -6 -835 20 -162 22 -436 67
-467 77 -26 8 57 -65 174 -154 441 -335 1042 -562 1618 -611 916 -79 1843 305
2457 1019 305 354 490 756 565 1223 22 141 25 580 5 727 -44 311 -142 638
-264 885 -46 92 -178 325 -185 325 -2 0 -2 -8 1 -17z"/>
<path d="M2560 5324 c-334 -43 -603 -175 -840 -413 -129 -129 -214 -249 -290
-406 -48 -99 -95 -235 -88 -255 1 -5 27 18 56 53 156 182 442 375 672 451 169
56 269 70 495 70 180 1 225 -2 317 -22 307 -64 571 -200 779 -400 172 -164
282 -325 360 -523 41 -103 44 -108 53 -82 5 15 9 96 9 178 0 177 -25 308 -93
477 -177 442 -568 759 -1050 853 -84 16 -312 27 -380 19z"/>
<path d="M2435 4593 c-329 -43 -547 -145 -746 -349 -238 -247 -332 -492 -316
-829 12 -242 82 -454 219 -660 54 -81 266 -307 253 -270 -61 179 -82 436 -50
625 43 260 150 471 334 664 185 192 404 315 648 362 107 21 299 23 403 5 185
-33 375 -116 528 -231 50 -38 92 -67 92 -62 -1 22 -99 186 -155 257 -159 204
-401 368 -647 439 -161 46 -414 68 -563 49z"/>
<path d="M2877 3899 c-195 -28 -390 -129 -537 -278 -133 -134 -215 -281 -267
-480 -21 -80 -25 -120 -26 -241 -2 -285 71 -506 239 -730 145 -192 355 -365
564 -464 94 -44 270 -109 270 -99 0 3 -30 37 -66 76 -222 240 -354 568 -354
883 0 458 256 864 663 1054 45 21 122 50 171 65 89 27 89 27 67 45 -42 31
-204 107 -276 129 -151 47 -308 61 -448 40z"/>
<path d="M8833 3878 c-33 -72 -278 -372 -443 -542 -472 -486 -1051 -783 -1725
-886 -181 -28 -554 -38 -757 -20 -426 36 -835 152 -1218 345 -264 134 -444
260 -628 439 -90 88 -115 107 -123 96 -23 -37 -72 -182 -86 -255 -20 -105 -13
-299 16 -407 48 -184 140 -343 289 -500 325 -341 811 -571 1387 -655 166 -24
551 -24 725 0 650 91 1168 337 1687 805 421 379 736 923 873 1506 21 88 22
116 3 74z"/>
<path d="M3639 3456 c-398 -119 -665 -450 -686 -852 -21 -412 201 -789 618
-1049 302 -187 631 -297 1014 -336 164 -17 566 -17 685 -1 101 14 266 49 289
62 7 4 -30 13 -85 19 -425 53 -812 192 -1143 411 -496 328 -742 726 -742 1200
1 191 41 372 117 523 14 26 21 47 17 46 -5 0 -42 -11 -84 -23z"/>
</g>
</svg>
